<svg xmlns="http://www.w3.org/2000/svg" xmlns:xlink="http://www.w3.org/1999/xlink" id="Layer_1" x="0" y="0" version="1.1" viewBox="0 0 800 800" style="enable-background:new 0 0 800 800" xml:space="preserve"><style type="text/css">.st0{fill:#00a87a}</style><g><polygon points="179.27 337.59 132.83 161.94 100.03 161.94 179.27 461.65 179.27 576.03 69.8 161.94 37 161.94 162.87 638.06 179.27 638.06 195.66 638.06 212.06 638.06 212.06 161.94 179.27 161.94" class="st0"/><path d="M763,638.06L637.13,161.94h-16.4h-16.4h-16.4v476.11h32.8l86.57-86.61l22.9,86.61H763z M678.2,441.33 l-57.46,57.46V223.97L678.2,441.33z M620.73,591.64v-46.47l67.16-67.16l9.72,36.75L620.73,591.64z" class="st0"/><path d="M281.2,161.94h-16.4h-16.4v476.11h32.8l86.57-86.61l22.9,86.61h32.8L297.59,161.94H281.2z M338.66,441.33 l-57.46,57.46V223.97L338.66,441.33z M281.2,591.64v-46.47l67.16-67.16l9.72,36.75L281.2,591.64z" class="st0"/><path d="M559.62,456.12l-77.77-294.18h-16.4h-16.4h-16.4v476.11h32.8v-88.29l30.13-30.13l31.31,118.42l32.73-0.24 l-38.1-144.12l12.05-12.05L559.62,456.12z M465.45,503.38V223.97l58.42,220.99L465.45,503.38z" class="st0"/></g></svg>